<svg width="200" height="40" viewBox="0 0 200 40" fill="none" xmlns="http://www.w3.org/2000/svg">
<g clip-path="url(#clip0_343_78071)">
<path d="M21.0549 12.0568L20.2433 16.3698H11.2699V19.7315H20.0459L19.2343 24.0444H11.2726V27.6845H21.2254L20.4111 31.9974H6V12.0568H21.0549Z" fill="white"/>
<path d="M20.8141 17.7587C20.8141 16.8237 20.9494 15.9968 21.2199 15.2779C21.4905 14.5591 21.9341 13.9511 22.5536 13.4566C23.1705 12.962 23.9496 12.654 24.9235 12.3918C25.8947 12.1297 27.085 12 28.4863 12H31.6705C32.2602 12 32.9014 12.0054 33.5912 12.0135C34.2838 12.0243 35.0494 12.0378 35.8907 12.0567L35.1197 16.3562C33.5858 16.3373 32.3008 16.3237 31.262 16.3129C30.2231 16.3048 29.3223 16.2994 28.554 16.2994C27.6748 16.2994 27.0904 16.394 26.8009 16.5805C26.5115 16.7669 26.3654 17.1317 26.3654 17.6722C26.3654 17.9343 26.3843 18.1478 26.4222 18.3181C26.4601 18.4856 26.5385 18.6207 26.6603 18.7234C26.782 18.8261 26.9497 18.9153 27.1662 18.9883C27.3799 19.0639 27.6558 19.1288 27.994 19.1855L31.1375 19.7449C32.1655 19.9314 33.0204 20.18 33.7048 20.4881C34.3866 20.7961 34.9357 21.188 35.3469 21.6663C35.7582 22.1419 36.0422 22.6986 36.2018 23.3336C36.3614 23.9687 36.4399 24.7064 36.4399 25.5468V26.0224C36.4399 27.0683 36.3046 27.9708 36.0341 28.7275C35.7636 29.4841 35.3091 30.1057 34.6733 30.5921C34.0376 31.0785 33.2017 31.4325 32.1628 31.6568C31.124 31.8811 29.839 31.9946 28.3051 31.9946H25.2481C24.6692 31.9946 24.0226 31.9892 23.3111 31.9811C22.5996 31.9703 21.7691 31.9568 20.8141 31.9379L21.5608 27.6249C23.0379 27.6628 24.3283 27.6817 25.4321 27.6817H28.3511C29.2871 27.6817 29.912 27.5925 30.2313 27.4142C30.5478 27.2358 30.7182 26.7791 30.7182 26.163C30.7182 25.8819 30.6939 25.6495 30.6479 25.4631C30.6019 25.2766 30.518 25.1226 30.3963 25.001C30.2745 24.8794 30.096 24.7767 29.8633 24.6929C29.628 24.6091 29.3358 24.5389 28.9787 24.4821L26.4817 24.0605C25.3212 23.8552 24.377 23.5984 23.6493 23.2904C22.9189 22.9823 22.3453 22.5986 21.9233 22.1419C21.5013 21.6852 21.2118 21.1366 21.0549 20.5016C20.8953 19.8665 20.8169 19.1099 20.8169 18.2316V17.756L20.8141 17.7587Z" fill="white"/>
<path d="M36.3154 12.046H53.9864V16.3643H47.4504V31.9974H42.0074V16.3643H35.5688L36.3127 12.046H36.3154Z" fill="white"/>
<path d="M71.5356 31.9974H65.7057L62.4269 25.501H59.7649V31.9974H54.3813V12.0568H62.7353C64.1556 12.0568 65.3702 12.173 66.3793 12.4081C67.3884 12.6405 68.2108 13.0107 68.8465 13.5134C69.4823 14.016 69.9449 14.67 70.2343 15.4726C70.5238 16.2752 70.6699 17.2561 70.6699 18.4127V19.0856C70.6699 20.5043 70.375 21.6528 69.788 22.5311C69.1982 23.4094 68.3623 24.0714 67.2802 24.52L71.541 31.9974H71.5356ZM65.2837 18.6965C65.2647 17.7993 65.0537 17.194 64.6533 16.8751C64.2502 16.5589 63.536 16.3995 62.508 16.3995H59.7595V21.2151H62.508C63.536 21.2151 64.2502 21.0556 64.6533 20.7394C65.0537 20.4233 65.2647 19.8152 65.2837 18.9181V18.6938V18.6965Z" fill="white"/>
<path d="M87.256 12.073V16.3832H77.1977V19.7422H85.9656L85.154 24.0525H77.1977V27.6898H87.256V32.0001H71.9332V12.073H87.256Z" fill="white"/>
<path d="M93.0832 12.073V27.6817H102.549L101.077 31.9947H87.651V12.073H93.0859H93.0832Z" fill="white"/>
<path d="M114.912 27.7169H108.273L106.929 31.9947H101.467L108.441 12.0568H114.996L122 31.9947H116.286L114.915 27.7169H114.912ZM109.477 23.4607H113.679L111.577 16.3887L109.475 23.4607H109.477Z" fill="white"/>
<path d="M116.074 12.226H149.923C149.998 12.226 150.028 12.3198 149.969 12.3627L122.729 31.9855C122.67 32.0283 122.59 31.9694 122.614 31.8998L126.775 20.1448C126.831 19.9841 126.775 19.8046 126.632 19.7082L116.033 12.3627C115.972 12.3198 116.001 12.2234 116.076 12.2234L116.074 12.226Z" fill="#FDD92D"/>
<path d="M144.225 31.8864L140.805 21.9049L138.876 23.3113L139.641 25.6875C139.662 25.7571 139.587 25.8134 139.525 25.7732L137.427 24.3266L135.509 25.725L144.107 31.9722C144.166 32.015 144.247 31.9561 144.225 31.8864Z" fill="#FDD92D"/>
<path d="M133.674 0.0505687L130.337 9.94101H132.77L133.605 7.63449C133.631 7.56751 133.725 7.57019 133.747 7.63717L134.514 9.94101H136.926L133.819 0.0532475C133.798 -0.0164034 133.698 -0.0190823 133.674 0.0532475V0.0505687Z" fill="#FDD92D"/>
<path d="M151 12.0162H160.705C162.843 12.0162 164.395 12.4336 165.362 13.2657C166.326 14.0978 166.81 15.3391 166.81 16.9843V17.3502C166.81 19.2963 166.03 20.6434 164.476 21.3914C165.413 21.7465 166.136 22.294 166.641 23.0339C167.147 23.7739 167.402 24.7415 167.402 25.9395V26.4436C167.402 28.4086 166.813 29.8262 165.631 30.6962C164.449 31.5662 162.677 31.9999 160.314 31.9999H151.003V12.0162H151ZM161.602 17.9818C161.602 17.3828 161.452 16.9572 161.151 16.7052C160.849 16.4531 160.335 16.3257 159.605 16.3257H156.032V20.001H159.52C160.289 20.001 160.827 19.8655 161.137 19.5944C161.447 19.3234 161.602 18.8789 161.602 18.2609V17.979V17.9818ZM156.034 27.6741H159.806C160.667 27.6741 161.278 27.5386 161.634 27.2676C161.99 26.9965 162.169 26.487 162.169 25.7389V25.373C162.169 24.587 161.987 24.0585 161.621 23.7874C161.254 23.5164 160.621 23.3809 159.721 23.3809H156.037V27.6741H156.034Z" fill="white"/>
<path d="M182.932 12L182.101 16.3204H173.081L173.094 19.6813H181.916L181.098 24.0125H173.094V27.6688H183.101L182.283 32H167.793V12H182.93H182.932Z" fill="white"/>
<path d="M183.332 12.0162H201L200.234 16.3257H194.501V31.9972H189.043L189.035 16.3257H182.563L183.332 12.0162Z" fill="white"/>
</g>
<defs>
<clipPath id="clip0_343_78071">
<rect width="200" height="40" fill="white"/>
</clipPath>
</defs>
</svg>
